<?xml version="1.0" encoding="UTF-8" standalone="no"?>
<!DOCTYPE svg PUBLIC "-//W3C//DTD SVG 1.1//EN"
 "http://www.w3.org/Graphics/SVG/1.1/DTD/svg11.dtd">
<!-- Generated by graphviz version 15.0.0 (20260523.1842)
 -->
<!-- Title: G Pages: 1 -->
<svg width="985pt" height="962pt"
 viewBox="0.00 0.00 985.00 962.00" xmlns="http://www.w3.org/2000/svg" xmlns:xlink="http://www.w3.org/1999/xlink">
<g id="graph0" class="graph" transform="scale(1 1) rotate(0) translate(4 958)">
<title>G</title>
<polygon fill="white" stroke="none" points="-4,4 -4,-958 981.25,-958 981.25,4 -4,4"/>
<!-- snowflake_account_role.loader -->
<g id="node1" class="node">
<title>snowflake_account_role.loader</title>
<polygon fill="none" stroke="black" points="454.62,-846 252.62,-846 252.62,-810 454.62,-810 454.62,-846"/>
<text xml:space="preserve" text-anchor="middle" x="353.62" y="-822.2" font-family="sans-serif" font-size="14.00">snowflake_account_role.loader</text>
</g>
<!-- snowflake_account_role.reporter -->
<g id="node2" class="node">
<title>snowflake_account_role.reporter</title>
<polygon fill="none" stroke="black" points="459.5,-144 247.75,-144 247.75,-108 459.5,-108 459.5,-144"/>
<text xml:space="preserve" text-anchor="middle" x="353.62" y="-120.2" font-family="sans-serif" font-size="14.00">snowflake_account_role.reporter</text>
</g>
<!-- snowflake_account_role.transformer -->
<g id="node3" class="node">
<title>snowflake_account_role.transformer</title>
<polygon fill="none" stroke="black" points="470.75,-570 236.5,-570 236.5,-534 470.75,-534 470.75,-570"/>
<text xml:space="preserve" text-anchor="middle" x="353.62" y="-546.2" font-family="sans-serif" font-size="14.00">snowflake_account_role.transformer</text>
</g>
<!-- snowflake_database.raw -->
<g id="node4" class="node">
<title>snowflake_database.raw</title>
<polygon fill="none" stroke="black" points="182.5,-765 18,-765 18,-729 182.5,-729 182.5,-765"/>
<text xml:space="preserve" text-anchor="middle" x="100.25" y="-741.2" font-family="sans-serif" font-size="14.00">snowflake_database.raw</text>
</g>
<!-- snowflake_database.reporting -->
<g id="node5" class="node">
<title>snowflake_database.reporting</title>
<polygon fill="none" stroke="black" points="198.25,-144 2.25,-144 2.25,-108 198.25,-108 198.25,-144"/>
<text xml:space="preserve" text-anchor="middle" x="100.25" y="-120.2" font-family="sans-serif" font-size="14.00">snowflake_database.reporting</text>
</g>
<!-- snowflake_database.transform -->
<g id="node6" class="node">
<title>snowflake_database.transform</title>
<polygon fill="none" stroke="black" points="200.5,-468 0,-468 0,-432 200.5,-432 200.5,-468"/>
<text xml:space="preserve" text-anchor="middle" x="100.25" y="-444.2" font-family="sans-serif" font-size="14.00">snowflake_database.transform</text>
</g>
<!-- snowflake_grant_account_role.loader_to_user -->
<g id="node7" class="node">
<title>snowflake_grant_account_role.loader_to_user</title>
<polygon fill="none" stroke="black" points="888.38,-900 595.62,-900 595.62,-864 888.38,-864 888.38,-900"/>
<text xml:space="preserve" text-anchor="middle" x="742" y="-876.2" font-family="sans-serif" font-size="14.00">snowflake_grant_account_role.loader_to_user</text>
</g>
<!-- snowflake_grant_account_role.loader_to_user&#45;&gt;snowflake_account_role.loader -->
<g id="edge1" class="edge">
<title>snowflake_grant_account_role.loader_to_user&#45;&gt;snowflake_account_role.loader</title>
<path fill="none" stroke="black" d="M595.24,-866.59C565.9,-863.1 535.31,-859.18 506.75,-855 493.14,-853.01 478.87,-850.73 464.76,-848.36"/>
<polygon fill="black" stroke="black" points="465.44,-844.93 454.99,-846.7 464.26,-851.83 465.44,-844.93"/>
</g>
<!-- snowflake_grant_account_role.reporter_to_user -->
<g id="node8" class="node">
<title>snowflake_grant_account_role.reporter_to_user</title>
<polygon fill="none" stroke="black" points="893.25,-144 590.75,-144 590.75,-108 893.25,-108 893.25,-144"/>
<text xml:space="preserve" text-anchor="middle" x="742" y="-120.2" font-family="sans-serif" font-size="14.00">snowflake_grant_account_role.reporter_to_user</text>
</g>
<!-- snowflake_grant_account_role.reporter_to_user&#45;&gt;snowflake_account_role.reporter -->
<g id="edge2" class="edge">
<title>snowflake_grant_account_role.reporter_to_user&#45;&gt;snowflake_account_role.reporter</title>
<path fill="none" stroke="black" d="M590.51,-126C550.95,-126 508.88,-126 471.39,-126"/>
<polygon fill="black" stroke="black" points="471.42,-122.5 461.42,-126 471.42,-129.5 471.42,-122.5"/>
</g>
<!-- snowflake_grant_account_role.transformer_to_user -->
<g id="node9" class="node">
<title>snowflake_grant_account_role.transformer_to_user</title>
<polygon fill="none" stroke="black" points="904.5,-576 579.5,-576 579.5,-540 904.5,-540 904.5,-576"/>
<text xml:space="preserve" text-anchor="middle" x="742" y="-552.2" font-family="sans-serif" font-size="14.00">snowflake_grant_account_role.transformer_to_user</text>
</g>
<!-- snowflake_grant_account_role.transformer_to_user&#45;&gt;snowflake_account_role.transformer -->
<g id="edge3" class="edge">
<title>snowflake_grant_account_role.transformer_to_user&#45;&gt;snowflake_account_role.transformer</title>
<path fill="none" stroke="black" d="M579.1,-555.49C546.8,-554.98 513.3,-554.46 482.34,-553.98"/>
<polygon fill="black" stroke="black" points="482.63,-550.49 472.58,-553.83 482.52,-557.49 482.63,-550.49"/>
</g>
<!-- snowflake_grant_privileges_to_account_role.loader_raw_db -->
<g id="node10" class="node">
<title>snowflake_grant_privileges_to_account_role.loader_raw_db</title>
<polygon fill="none" stroke="black" points="929.62,-954 554.38,-954 554.38,-918 929.62,-918 929.62,-954"/>
<text xml:space="preserve" text-anchor="middle" x="742" y="-930.2" font-family="sans-serif" font-size="14.00">snowflake_grant_privileges_to_account_role.loader_raw_db</text>
</g>
<!-- snowflake_grant_privileges_to_account_role.loader_raw_db&#45;&gt;snowflake_account_role.loader -->
<g id="edge4" class="edge">
<title>snowflake_grant_privileges_to_account_role.loader_raw_db&#45;&gt;snowflake_account_role.loader</title>
<path fill="none" stroke="black" d="M553.95,-920.86C537.82,-917.63 521.9,-913.72 506.75,-909 500.95,-907.19 441.23,-875.05 398.38,-851.81"/>
<polygon fill="black" stroke="black" points="400.22,-848.83 389.76,-847.13 396.88,-854.98 400.22,-848.83"/>
</g>
<!-- snowflake_grant_privileges_to_account_role.loader_raw_db&#45;&gt;snowflake_database.raw -->
<g id="edge5" class="edge">
<title>snowflake_grant_privileges_to_account_role.loader_raw_db&#45;&gt;snowflake_database.raw</title>
<path fill="none" stroke="black" d="M554.08,-930.4C455.75,-921.53 335.43,-901.03 236.5,-855 193.18,-834.84 151.49,-798.05 126.12,-773.07"/>
<polygon fill="black" stroke="black" points="128.77,-770.78 119.23,-766.17 123.82,-775.72 128.77,-770.78"/>
</g>
<!-- snowflake_grant_privileges_to_account_role.loader_raw_future_tables -->
<g id="node11" class="node">
<title>snowflake_grant_privileges_to_account_role.loader_raw_future_tables</title>
<polygon fill="none" stroke="black" points="961.12,-846 522.88,-846 522.88,-810 961.12,-810 961.12,-846"/>
<text xml:space="preserve" text-anchor="middle" x="742" y="-822.2" font-family="sans-serif" font-size="14.00">snowflake_grant_privileges_to_account_role.loader_raw_future_tables</text>
</g>
<!-- snowflake_grant_privileges_to_account_role.loader_raw_future_tables&#45;&gt;snowflake_account_role.loader -->
<g id="edge6" class="edge">
<title>snowflake_grant_privileges_to_account_role.loader_raw_future_tables&#45;&gt;snowflake_account_role.loader</title>
<path fill="none" stroke="black" d="M522.41,-828C502.99,-828 483.91,-828 465.99,-828"/>
<polygon fill="black" stroke="black" points="466.21,-824.5 456.21,-828 466.21,-831.5 466.21,-824.5"/>
</g>
<!-- snowflake_schema.raw -->
<g id="node26" class="node">
<title>snowflake_schema.raw</title>
<polygon fill="none" stroke="black" points="432.12,-765 275.12,-765 275.12,-729 432.12,-729 432.12,-765"/>
<text xml:space="preserve" text-anchor="middle" x="353.62" y="-741.2" font-family="sans-serif" font-size="14.00">snowflake_schema.raw</text>
</g>
<!-- snowflake_grant_privileges_to_account_role.loader_raw_future_tables&#45;&gt;snowflake_schema.raw -->
<g id="edge7" class="edge">
<title>snowflake_grant_privileges_to_account_role.loader_raw_future_tables&#45;&gt;snowflake_schema.raw</title>
<path fill="none" stroke="black" d="M549.27,-809.51C534.81,-807.01 520.51,-804.19 506.75,-801 473.46,-793.28 437.38,-780.66 408.71,-769.57"/>
<polygon fill="black" stroke="black" points="410.1,-766.35 399.51,-765.96 407.54,-772.87 410.1,-766.35"/>
</g>
<!-- snowflake_grant_privileges_to_account_role.loader_raw_schema -->
<g id="node12" class="node">
<title>snowflake_grant_privileges_to_account_role.loader_raw_schema</title>
<polygon fill="none" stroke="black" points="946.12,-792 537.88,-792 537.88,-756 946.12,-756 946.12,-792"/>
<text xml:space="preserve" text-anchor="middle" x="742" y="-768.2" font-family="sans-serif" font-size="14.00">snowflake_grant_privileges_to_account_role.loader_raw_schema</text>
</g>
<!-- snowflake_grant_privileges_to_account_role.loader_raw_schema&#45;&gt;snowflake_account_role.loader -->
<g id="edge8" class="edge">
<title>snowflake_grant_privileges_to_account_role.loader_raw_schema&#45;&gt;snowflake_account_role.loader</title>
<path fill="none" stroke="black" d="M570.04,-792.48C548.71,-795.15 527.21,-798.01 506.75,-801 493.14,-802.99 478.87,-805.27 464.76,-807.64"/>
<polygon fill="black" stroke="black" points="464.26,-804.17 454.99,-809.3 465.44,-811.07 464.26,-804.17"/>
</g>
<!-- snowflake_grant_privileges_to_account_role.loader_raw_schema&#45;&gt;snowflake_schema.raw -->
<g id="edge9" class="edge">
<title>snowflake_grant_privileges_to_account_role.loader_raw_schema&#45;&gt;snowflake_schema.raw</title>
<path fill="none" stroke="black" d="M537.63,-759.79C504.71,-757.49 472.19,-755.22 443.9,-753.24"/>
<polygon fill="black" stroke="black" points="444.19,-749.75 433.97,-752.54 443.7,-756.73 444.19,-749.75"/>
</g>
<!-- snowflake_grant_privileges_to_account_role.loader_wh -->
<g id="node13" class="node">
<title>snowflake_grant_privileges_to_account_role.loader_wh</title>
<polygon fill="none" stroke="black" points="916.12,-414 567.88,-414 567.88,-378 916.12,-378 916.12,-414"/>
<text xml:space="preserve" text-anchor="middle" x="742" y="-390.2" font-family="sans-serif" font-size="14.00">snowflake_grant_privileges_to_account_role.loader_wh</text>
</g>
<!-- snowflake_grant_privileges_to_account_role.loader_wh&#45;&gt;snowflake_account_role.loader -->
<g id="edge10" class="edge">
<title>snowflake_grant_privileges_to_account_role.loader_wh&#45;&gt;snowflake_account_role.loader</title>
<path fill="none" stroke="black" d="M567.61,-389.07C544.76,-395.39 523.51,-406.03 506.75,-423 451.66,-478.79 516.24,-710.13 470.75,-774 461.42,-787.1 448.1,-797.1 433.78,-804.72"/>
<polygon fill="black" stroke="black" points="432.56,-801.42 425.11,-808.96 435.63,-807.71 432.56,-801.42"/>
</g>
<!-- snowflake_warehouse.compute -->
<g id="node29" class="node">
<title>snowflake_warehouse.compute</title>
<polygon fill="none" stroke="black" points="456.5,-306 250.75,-306 250.75,-270 456.5,-270 456.5,-306"/>
<text xml:space="preserve" text-anchor="middle" x="353.62" y="-282.2" font-family="sans-serif" font-size="14.00">snowflake_warehouse.compute</text>
</g>
<!-- snowflake_grant_privileges_to_account_role.loader_wh&#45;&gt;snowflake_warehouse.compute -->
<g id="edge11" class="edge">
<title>snowflake_grant_privileges_to_account_role.loader_wh&#45;&gt;snowflake_warehouse.compute</title>
<path fill="none" stroke="black" d="M567.63,-386.53C546.7,-382.33 525.96,-376.65 506.75,-369 488.17,-361.6 487.91,-352.27 470.75,-342 451.67,-330.58 429.77,-319.84 410.17,-310.99"/>
<polygon fill="black" stroke="black" points="411.8,-307.88 401.24,-307.02 408.96,-314.28 411.8,-307.88"/>
</g>
<!-- snowflake_grant_privileges_to_account_role.reporter_future_tables -->
<g id="node14" class="node">
<title>snowflake_grant_privileges_to_account_role.reporter_future_tables</title>
<polygon fill="none" stroke="black" points="951.38,-90 532.62,-90 532.62,-54 951.38,-54 951.38,-90"/>
<text xml:space="preserve" text-anchor="middle" x="742" y="-66.2" font-family="sans-serif" font-size="14.00">snowflake_grant_privileges_to_account_role.reporter_future_tables</text>
</g>
<!-- snowflake_grant_privileges_to_account_role.reporter_future_tables&#45;&gt;snowflake_account_role.reporter -->
<g id="edge12" class="edge">
<title>snowflake_grant_privileges_to_account_role.reporter_future_tables&#45;&gt;snowflake_account_role.reporter</title>
<path fill="none" stroke="black" d="M570.04,-90.48C548.71,-93.15 527.21,-96.01 506.75,-99 493.14,-100.99 478.87,-103.27 464.76,-105.64"/>
<polygon fill="black" stroke="black" points="464.26,-102.17 454.99,-107.3 465.44,-109.07 464.26,-102.17"/>
</g>
<!-- snowflake_schema.reporting -->
<g id="node27" class="node">
<title>snowflake_schema.reporting</title>
<polygon fill="none" stroke="black" points="447.88,-90 259.38,-90 259.38,-54 447.88,-54 447.88,-90"/>
<text xml:space="preserve" text-anchor="middle" x="353.62" y="-66.2" font-family="sans-serif" font-size="14.00">snowflake_schema.reporting</text>
</g>
<!-- snowflake_grant_privileges_to_account_role.reporter_future_tables&#45;&gt;snowflake_schema.reporting -->
<g id="edge13" class="edge">
<title>snowflake_grant_privileges_to_account_role.reporter_future_tables&#45;&gt;snowflake_schema.reporting</title>
<path fill="none" stroke="black" d="M532.26,-72C507.14,-72 482.36,-72 459.66,-72"/>
<polygon fill="black" stroke="black" points="459.85,-68.5 449.85,-72 459.85,-75.5 459.85,-68.5"/>
</g>
<!-- snowflake_grant_privileges_to_account_role.reporter_reporting_db -->
<g id="node15" class="node">
<title>snowflake_grant_privileges_to_account_role.reporter_reporting_db</title>
<polygon fill="none" stroke="black" points="950.25,-198 533.75,-198 533.75,-162 950.25,-162 950.25,-198"/>
<text xml:space="preserve" text-anchor="middle" x="742" y="-174.2" font-family="sans-serif" font-size="14.00">snowflake_grant_privileges_to_account_role.reporter_reporting_db</text>
</g>
<!-- snowflake_grant_privileges_to_account_role.reporter_reporting_db&#45;&gt;snowflake_account_role.reporter -->
<g id="edge14" class="edge">
<title>snowflake_grant_privileges_to_account_role.reporter_reporting_db&#45;&gt;snowflake_account_role.reporter</title>
<path fill="none" stroke="black" d="M570.04,-161.52C548.71,-158.85 527.21,-155.99 506.75,-153 493.14,-151.01 478.87,-148.73 464.76,-146.36"/>
<polygon fill="black" stroke="black" points="465.44,-142.93 454.99,-144.7 464.26,-149.83 465.44,-142.93"/>
</g>
<!-- snowflake_grant_privileges_to_account_role.reporter_reporting_db&#45;&gt;snowflake_database.reporting -->
<g id="edge15" class="edge">
<title>snowflake_grant_privileges_to_account_role.reporter_reporting_db&#45;&gt;snowflake_database.reporting</title>
<path fill="none" stroke="black" d="M533.3,-175.59C441.99,-171.93 333.64,-165.23 236.5,-153 223,-151.3 208.84,-149.03 194.96,-146.51"/>
<polygon fill="black" stroke="black" points="195.87,-143.12 185.4,-144.73 194.59,-150.01 195.87,-143.12"/>
</g>
<!-- snowflake_grant_privileges_to_account_role.reporter_reporting_schema -->
<g id="node16" class="node">
<title>snowflake_grant_privileges_to_account_role.reporter_reporting_schema</title>
<polygon fill="none" stroke="black" points="966.75,-36 517.25,-36 517.25,0 966.75,0 966.75,-36"/>
<text xml:space="preserve" text-anchor="middle" x="742" y="-12.2" font-family="sans-serif" font-size="14.00">snowflake_grant_privileges_to_account_role.reporter_reporting_schema</text>
</g>
<!-- snowflake_grant_privileges_to_account_role.reporter_reporting_schema&#45;&gt;snowflake_account_role.reporter -->
<g id="edge16" class="edge">
<title>snowflake_grant_privileges_to_account_role.reporter_reporting_schema&#45;&gt;snowflake_account_role.reporter</title>
<path fill="none" stroke="black" d="M522.44,-36.48C517.06,-39.07 511.81,-41.9 506.75,-45 482.14,-60.05 494.46,-82.58 470.75,-99 469.14,-100.11 467.49,-101.18 465.81,-102.21"/>
<polygon fill="black" stroke="black" points="464.29,-99.05 457.16,-106.89 467.62,-105.21 464.29,-99.05"/>
</g>
<!-- snowflake_grant_privileges_to_account_role.reporter_reporting_schema&#45;&gt;snowflake_schema.reporting -->
<g id="edge17" class="edge">
<title>snowflake_grant_privileges_to_account_role.reporter_reporting_schema&#45;&gt;snowflake_schema.reporting</title>
<path fill="none" stroke="black" d="M570.04,-36.48C548.71,-39.15 527.21,-42.01 506.75,-45 491.33,-47.25 475.08,-49.88 459.16,-52.58"/>
<polygon fill="black" stroke="black" points="458.96,-49.07 449.7,-54.21 460.15,-55.96 458.96,-49.07"/>
</g>
<!-- snowflake_grant_privileges_to_account_role.reporter_wh -->
<g id="node17" class="node">
<title>snowflake_grant_privileges_to_account_role.reporter_wh</title>
<polygon fill="none" stroke="black" points="921,-252 563,-252 563,-216 921,-216 921,-252"/>
<text xml:space="preserve" text-anchor="middle" x="742" y="-228.2" font-family="sans-serif" font-size="14.00">snowflake_grant_privileges_to_account_role.reporter_wh</text>
</g>
<!-- snowflake_grant_privileges_to_account_role.reporter_wh&#45;&gt;snowflake_account_role.reporter -->
<g id="edge18" class="edge">
<title>snowflake_grant_privileges_to_account_role.reporter_wh&#45;&gt;snowflake_account_role.reporter</title>
<path fill="none" stroke="black" d="M562.7,-220.55C543.6,-217.01 524.63,-212.57 506.75,-207 464.79,-193.93 420.89,-169.19 391.1,-150.47"/>
<polygon fill="black" stroke="black" points="393.15,-147.63 382.84,-145.2 389.38,-153.53 393.15,-147.63"/>
</g>
<!-- snowflake_grant_privileges_to_account_role.reporter_wh&#45;&gt;snowflake_warehouse.compute -->
<g id="edge19" class="edge">
<title>snowflake_grant_privileges_to_account_role.reporter_wh&#45;&gt;snowflake_warehouse.compute</title>
<path fill="none" stroke="black" d="M570.04,-252.48C548.71,-255.15 527.21,-258.01 506.75,-261 493.14,-262.99 478.87,-265.27 464.76,-267.64"/>
<polygon fill="black" stroke="black" points="464.26,-264.17 454.99,-269.3 465.44,-271.07 464.26,-264.17"/>
</g>
<!-- snowflake_grant_privileges_to_account_role.transformer_marts_schema -->
<g id="node18" class="node">
<title>snowflake_grant_privileges_to_account_role.transformer_marts_schema</title>
<polygon fill="none" stroke="black" points="968.62,-468 515.38,-468 515.38,-432 968.62,-432 968.62,-468"/>
<text xml:space="preserve" text-anchor="middle" x="742" y="-444.2" font-family="sans-serif" font-size="14.00">snowflake_grant_privileges_to_account_role.transformer_marts_schema</text>
</g>
<!-- snowflake_grant_privileges_to_account_role.transformer_marts_schema&#45;&gt;snowflake_account_role.transformer -->
<g id="edge20" class="edge">
<title>snowflake_grant_privileges_to_account_role.transformer_marts_schema&#45;&gt;snowflake_account_role.transformer</title>
<path fill="none" stroke="black" d="M540.4,-468.46C528.93,-470.96 517.65,-473.79 506.75,-477 466.4,-488.88 423.71,-510.86 393.86,-527.96"/>
<polygon fill="black" stroke="black" points="392.44,-524.74 385.56,-532.79 395.96,-530.79 392.44,-524.74"/>
</g>
<!-- snowflake_schema.marts -->
<g id="node25" class="node">
<title>snowflake_schema.marts</title>
<polygon fill="none" stroke="black" points="438.5,-468 268.75,-468 268.75,-432 438.5,-432 438.5,-468"/>
<text xml:space="preserve" text-anchor="middle" x="353.62" y="-444.2" font-family="sans-serif" font-size="14.00">snowflake_schema.marts</text>
</g>
<!-- snowflake_grant_privileges_to_account_role.transformer_marts_schema&#45;&gt;snowflake_schema.marts -->
<g id="edge21" class="edge">
<title>snowflake_grant_privileges_to_account_role.transformer_marts_schema&#45;&gt;snowflake_schema.marts</title>
<path fill="none" stroke="black" d="M515.13,-450C492.38,-450 470.26,-450 450.07,-450"/>
<polygon fill="black" stroke="black" points="450.25,-446.5 440.25,-450 450.25,-453.5 450.25,-446.5"/>
</g>
<!-- snowflake_grant_privileges_to_account_role.transformer_raw_db -->
<g id="node19" class="node">
<title>snowflake_grant_privileges_to_account_role.transformer_raw_db</title>
<polygon fill="none" stroke="black" points="945.75,-630 538.25,-630 538.25,-594 945.75,-594 945.75,-630"/>
<text xml:space="preserve" text-anchor="middle" x="742" y="-606.2" font-family="sans-serif" font-size="14.00">snowflake_grant_privileges_to_account_role.transformer_raw_db</text>
</g>
<!-- snowflake_grant_privileges_to_account_role.transformer_raw_db&#45;&gt;snowflake_account_role.transformer -->
<g id="edge22" class="edge">
<title>snowflake_grant_privileges_to_account_role.transformer_raw_db&#45;&gt;snowflake_account_role.transformer</title>
<path fill="none" stroke="black" d="M564.23,-593.52C544.79,-590.92 525.33,-588.08 506.75,-585 486.18,-581.59 464.2,-577.24 443.52,-572.83"/>
<polygon fill="black" stroke="black" points="444.51,-569.46 433.99,-570.77 443.03,-576.3 444.51,-569.46"/>
</g>
<!-- snowflake_grant_privileges_to_account_role.transformer_raw_db&#45;&gt;snowflake_database.raw -->
<g id="edge23" class="edge">
<title>snowflake_grant_privileges_to_account_role.transformer_raw_db&#45;&gt;snowflake_database.raw</title>
<path fill="none" stroke="black" d="M558.06,-630.48C540.67,-633.02 523.34,-635.85 506.75,-639 387.12,-661.7 250.85,-700.8 170.66,-725.2"/>
<polygon fill="black" stroke="black" points="169.72,-721.83 161.18,-728.1 171.76,-728.52 169.72,-721.83"/>
</g>
<!-- snowflake_grant_privileges_to_account_role.transformer_raw_future_tables -->
<g id="node20" class="node">
<title>snowflake_grant_privileges_to_account_role.transformer_raw_future_tables</title>
<polygon fill="none" stroke="black" points="977.25,-738 506.75,-738 506.75,-702 977.25,-702 977.25,-738"/>
<text xml:space="preserve" text-anchor="middle" x="742" y="-714.2" font-family="sans-serif" font-size="14.00">snowflake_grant_privileges_to_account_role.transformer_raw_future_tables</text>
</g>
<!-- snowflake_grant_privileges_to_account_role.transformer_raw_future_tables&#45;&gt;snowflake_account_role.transformer -->
<g id="edge24" class="edge">
<title>snowflake_grant_privileges_to_account_role.transformer_raw_future_tables&#45;&gt;snowflake_account_role.transformer</title>
<path fill="none" stroke="black" d="M528.01,-701.57C520.74,-699.01 513.63,-696.16 506.75,-693 450.23,-667 400.72,-611.88 374.49,-578.78"/>
<polygon fill="black" stroke="black" points="377.55,-577.02 368.65,-571.27 372.02,-581.31 377.55,-577.02"/>
</g>
<!-- snowflake_grant_privileges_to_account_role.transformer_raw_future_tables&#45;&gt;snowflake_schema.raw -->
<g id="edge25" class="edge">
<title>snowflake_grant_privileges_to_account_role.transformer_raw_future_tables&#45;&gt;snowflake_schema.raw</title>
<path fill="none" stroke="black" d="M506.5,-736.39C484.51,-737.92 463.27,-739.41 443.99,-740.75"/>
<polygon fill="black" stroke="black" points="443.81,-737.26 434.08,-741.45 444.3,-744.24 443.81,-737.26"/>
</g>
<!-- snowflake_grant_privileges_to_account_role.transformer_raw_schema -->
<g id="node21" class="node">
<title>snowflake_grant_privileges_to_account_role.transformer_raw_schema</title>
<polygon fill="none" stroke="black" points="962.25,-684 521.75,-684 521.75,-648 962.25,-648 962.25,-684"/>
<text xml:space="preserve" text-anchor="middle" x="742" y="-660.2" font-family="sans-serif" font-size="14.00">snowflake_grant_privileges_to_account_role.transformer_raw_schema</text>
</g>
<!-- snowflake_grant_privileges_to_account_role.transformer_raw_schema&#45;&gt;snowflake_account_role.transformer -->
<g id="edge26" class="edge">
<title>snowflake_grant_privileges_to_account_role.transformer_raw_schema&#45;&gt;snowflake_account_role.transformer</title>
<path fill="none" stroke="black" d="M536.77,-647.52C526.53,-645.02 516.47,-642.19 506.75,-639 463.38,-624.76 418.59,-597.33 388.95,-577.06"/>
<polygon fill="black" stroke="black" points="390.95,-574.19 380.74,-571.35 386.95,-579.94 390.95,-574.19"/>
</g>
<!-- snowflake_grant_privileges_to_account_role.transformer_raw_schema&#45;&gt;snowflake_schema.raw -->
<g id="edge27" class="edge">
<title>snowflake_grant_privileges_to_account_role.transformer_raw_schema&#45;&gt;snowflake_schema.raw</title>
<path fill="none" stroke="black" d="M549.27,-684.49C534.81,-686.99 520.51,-689.81 506.75,-693 473.46,-700.72 437.38,-713.34 408.71,-724.43"/>
<polygon fill="black" stroke="black" points="407.54,-721.13 399.51,-728.04 410.1,-727.65 407.54,-721.13"/>
</g>
<!-- snowflake_grant_privileges_to_account_role.transformer_staging_schema -->
<g id="node22" class="node">
<title>snowflake_grant_privileges_to_account_role.transformer_staging_schema</title>
<polygon fill="none" stroke="black" points="973.12,-360 510.88,-360 510.88,-324 973.12,-324 973.12,-360"/>
<text xml:space="preserve" text-anchor="middle" x="742" y="-336.2" font-family="sans-serif" font-size="14.00">snowflake_grant_privileges_to_account_role.transformer_staging_schema</text>
</g>
<!-- snowflake_grant_privileges_to_account_role.transformer_staging_schema&#45;&gt;snowflake_account_role.transformer -->
<g id="edge28" class="edge">
<title>snowflake_grant_privileges_to_account_role.transformer_staging_schema&#45;&gt;snowflake_account_role.transformer</title>
<path fill="none" stroke="black" d="M518.64,-360.39C514.54,-363.04 510.56,-365.9 506.75,-369 467.47,-400.89 501.75,-437.02 470.75,-477 454.04,-498.55 429.3,-515.74 406.94,-528.2"/>
<polygon fill="black" stroke="black" points="405.37,-525.07 398.2,-532.87 408.67,-531.24 405.37,-525.07"/>
</g>
<!-- snowflake_schema.staging -->
<g id="node28" class="node">
<title>snowflake_schema.staging</title>
<polygon fill="none" stroke="black" points="443,-387 264.25,-387 264.25,-351 443,-351 443,-387"/>
<text xml:space="preserve" text-anchor="middle" x="353.62" y="-363.2" font-family="sans-serif" font-size="14.00">snowflake_schema.staging</text>
</g>
<!-- snowflake_grant_privileges_to_account_role.transformer_staging_schema&#45;&gt;snowflake_schema.staging -->
<g id="edge29" class="edge">
<title>snowflake_grant_privileges_to_account_role.transformer_staging_schema&#45;&gt;snowflake_schema.staging</title>
<path fill="none" stroke="black" d="M510.39,-358.12C491.06,-359.47 472.25,-360.78 454.77,-362"/>
<polygon fill="black" stroke="black" points="454.73,-358.5 445,-362.68 455.22,-365.48 454.73,-358.5"/>
</g>
<!-- snowflake_grant_privileges_to_account_role.transformer_transform_db -->
<g id="node23" class="node">
<title>snowflake_grant_privileges_to_account_role.transformer_transform_db</title>
<polygon fill="none" stroke="black" points="963.75,-522 520.25,-522 520.25,-486 963.75,-486 963.75,-522"/>
<text xml:space="preserve" text-anchor="middle" x="742" y="-498.2" font-family="sans-serif" font-size="14.00">snowflake_grant_privileges_to_account_role.transformer_transform_db</text>
</g>
<!-- snowflake_grant_privileges_to_account_role.transformer_transform_db&#45;&gt;snowflake_account_role.transformer -->
<g id="edge30" class="edge">
<title>snowflake_grant_privileges_to_account_role.transformer_transform_db&#45;&gt;snowflake_account_role.transformer</title>
<path fill="none" stroke="black" d="M576.49,-522.49C553.07,-525.26 529.29,-528.15 506.75,-531 498.75,-532.01 490.51,-533.08 482.21,-534.17"/>
<polygon fill="black" stroke="black" points="481.82,-530.7 472.37,-535.48 482.74,-537.63 481.82,-530.7"/>
</g>
<!-- snowflake_grant_privileges_to_account_role.transformer_transform_db&#45;&gt;snowflake_database.transform -->
<g id="edge31" class="edge">
<title>snowflake_grant_privileges_to_account_role.transformer_transform_db&#45;&gt;snowflake_database.transform</title>
<path fill="none" stroke="black" d="M519.99,-499.04C431.58,-495.27 328.96,-488.64 236.5,-477 223,-475.3 208.84,-473.03 194.96,-470.51"/>
<polygon fill="black" stroke="black" points="195.87,-467.12 185.4,-468.73 194.59,-474.01 195.87,-467.12"/>
</g>
<!-- snowflake_grant_privileges_to_account_role.transformer_wh -->
<g id="node24" class="node">
<title>snowflake_grant_privileges_to_account_role.transformer_wh</title>
<polygon fill="none" stroke="black" points="932.25,-306 551.75,-306 551.75,-270 932.25,-270 932.25,-306"/>
<text xml:space="preserve" text-anchor="middle" x="742" y="-282.2" font-family="sans-serif" font-size="14.00">snowflake_grant_privileges_to_account_role.transformer_wh</text>
</g>
<!-- snowflake_grant_privileges_to_account_role.transformer_wh&#45;&gt;snowflake_account_role.transformer -->
<g id="edge32" class="edge">
<title>snowflake_grant_privileges_to_account_role.transformer_wh&#45;&gt;snowflake_account_role.transformer</title>
<path fill="none" stroke="black" d="M551.52,-288.5C535.12,-294.63 519.83,-303.22 506.75,-315 451.96,-364.37 512.88,-416.46 470.75,-477 455.47,-498.95 431.49,-516 409.28,-528.26"/>
<polygon fill="black" stroke="black" points="407.79,-525.09 400.58,-532.85 411.05,-531.28 407.79,-525.09"/>
</g>
<!-- snowflake_grant_privileges_to_account_role.transformer_wh&#45;&gt;snowflake_warehouse.compute -->
<g id="edge33" class="edge">
<title>snowflake_grant_privileges_to_account_role.transformer_wh&#45;&gt;snowflake_warehouse.compute</title>
<path fill="none" stroke="black" d="M551.49,-288C523.04,-288 494.48,-288 468.28,-288"/>
<polygon fill="black" stroke="black" points="468.33,-284.5 458.33,-288 468.33,-291.5 468.33,-284.5"/>
</g>
<!-- snowflake_schema.marts&#45;&gt;snowflake_database.transform -->
<g id="edge34" class="edge">
<title>snowflake_schema.marts&#45;&gt;snowflake_database.transform</title>
<path fill="none" stroke="black" d="M268.57,-450C250.52,-450 231.18,-450 212.28,-450"/>
<polygon fill="black" stroke="black" points="212.42,-446.5 202.42,-450 212.42,-453.5 212.42,-446.5"/>
</g>
<!-- snowflake_schema.raw&#45;&gt;snowflake_database.raw -->
<g id="edge35" class="edge">
<title>snowflake_schema.raw&#45;&gt;snowflake_database.raw</title>
<path fill="none" stroke="black" d="M274.81,-747C249.2,-747 220.47,-747 193.87,-747"/>
<polygon fill="black" stroke="black" points="194.12,-743.5 184.12,-747 194.12,-750.5 194.12,-743.5"/>
</g>
<!-- snowflake_schema.reporting&#45;&gt;snowflake_database.reporting -->
<g id="edge36" class="edge">
<title>snowflake_schema.reporting&#45;&gt;snowflake_database.reporting</title>
<path fill="none" stroke="black" d="M266.82,-90.43C244.7,-95.19 220.73,-100.33 198.09,-105.2"/>
<polygon fill="black" stroke="black" points="197.62,-101.72 188.58,-107.24 199.09,-108.56 197.62,-101.72"/>
</g>
<!-- snowflake_schema.staging&#45;&gt;snowflake_database.transform -->
<g id="edge37" class="edge">
<title>snowflake_schema.staging&#45;&gt;snowflake_database.transform</title>
<path fill="none" stroke="black" d="M295.27,-387.48C257.79,-399.56 208.65,-415.39 169.21,-428.1"/>
<polygon fill="black" stroke="black" points="168.24,-424.74 159.8,-431.13 170.39,-431.4 168.24,-424.74"/>
</g>
</g>
</svg>
